<svg width="280" height="64" viewBox="0 0 280 64" fill="none" xmlns="http://www.w3.org/2000/svg">
  <!-- Icon 64x64 -->
  <rect width="64" height="64" rx="14" fill="#2C3E2D"/>

  <!-- Top-left tile -->
  <rect x="10" y="10" width="18" height="18" rx="3.5" fill="#F7F4EF"/>
  <!-- Top-right tile -->
  <rect x="35" y="10" width="18" height="18" rx="3.5" fill="#C8B99A"/>
  <!-- Bottom-left tile -->
  <rect x="10" y="35" width="18" height="18" rx="3.5" fill="#F7F4EF" opacity="0.25"/>
  <!-- Bottom-right tile -->
  <rect x="35" y="35" width="18" height="18" rx="3.5" fill="#F7F4EF" opacity="0.6"/>

  <!-- Star in top-right tile -->
  <circle cx="44" cy="19" r="5" fill="#2C3E2D"/>
  <line x1="44" y1="12.5" x2="44" y2="11" stroke="#2C3E2D" stroke-width="1.2" stroke-linecap="round"/>
  <line x1="44" y1="25.5" x2="44" y2="27" stroke="#2C3E2D" stroke-width="1.2" stroke-linecap="round"/>
  <line x1="37.5" y1="19" x2="36" y2="19" stroke="#2C3E2D" stroke-width="1.2" stroke-linecap="round"/>
  <line x1="50.5" y1="19" x2="52" y2="19" stroke="#2C3E2D" stroke-width="1.2" stroke-linecap="round"/>
  <line x1="39.5" y1="14.5" x2="38.5" y2="13.5" stroke="#2C3E2D" stroke-width="1.2" stroke-linecap="round"/>
  <line x1="48.5" y1="23.5" x2="49.5" y2="24.5" stroke="#2C3E2D" stroke-width="1.2" stroke-linecap="round"/>
  <line x1="48.5" y1="14.5" x2="49.5" y2="13.5" stroke="#2C3E2D" stroke-width="1.2" stroke-linecap="round"/>
  <line x1="39.5" y1="23.5" x2="38.5" y2="24.5" stroke="#2C3E2D" stroke-width="1.2" stroke-linecap="round"/>
  <circle cx="44" cy="19" r="2.5" fill="#F7F4EF"/>

  <!-- Wordmark -->
  <text x="80" y="38" font-family="Georgia, 'Times New Roman', serif" font-size="26" font-weight="700" fill="#1A1A18" letter-spacing="-0.8">app-verse</text>
  <!-- Tagline -->
  <text x="81" y="54" font-family="'Arial', sans-serif" font-size="10" font-weight="500" fill="#6B7B6C" letter-spacing="1.5">DIREKTORI PRODUK DIGITAL</text>
</svg>
